<svg id="Layer_1" data-name="Layer 1" xmlns="http://www.w3.org/2000/svg" viewBox="0 0 692.72 654.51"><defs><style>.cls-1{fill:#00AEEF;}</style></defs><polygon class="cls-1" points="692.72 654.51 523.01 654.51 489.02 611.95 438.31 548.48 346.39 433.45 254.47 548.48 203.73 611.95 169.74 654.51 112.5 654.51 146.52 611.95 197.23 548.48 317.75 397.64 346.39 361.81 375 397.62 495.56 548.48 546.26 611.95 601.46 611.95 550.75 548.48 402.6 363.09 373.99 327.26 402.6 291.45 550.75 106.03 608.02 106.03 431.23 327.28 608 548.48 658.71 611.95 692.72 654.51"/><polygon class="cls-1" points="580.28 0 546.29 42.56 495.56 106.03 375 256.89 346.39 292.73 317.75 256.89 197.2 106.03 146.49 42.56 91.29 42.56 142 106.03 290.16 291.45 318.79 327.26 290.16 363.09 142 548.48 84.76 548.48 261.52 327.28 84.73 106.03 34.02 42.56 0 0 169.71 0 203.73 42.56 254.44 106.03 346.39 221.09 438.31 106.03 489.02 42.56 523.04 0 580.28 0"/></svg>